<?xml version="1.0" encoding="iso-8859-1"?>
<!-- Generator: Adobe Illustrator 16.0.0, SVG Export Plug-In . SVG Version: 6.00 Build 0)  -->
<!DOCTYPE svg PUBLIC "-//W3C//DTD SVG 1.1//EN" "http://www.w3.org/Graphics/SVG/1.1/DTD/svg11.dtd">
<svg version="1.1" id="Capa_1" xmlns="http://www.w3.org/2000/svg" xmlns:xlink="http://www.w3.org/1999/xlink" x="0px" y="0px"
	 width="47.324px" height="47.324px" viewBox="0 0 47.324 47.324" style="enable-background:new 0 0 47.324 47.324;"
	 xml:space="preserve">
<g>
	<g>
		<path fill="#c4af73" d="M14.085,15.308V1.916C14.085,0.858,13.228,0,12.17,0c-1.059,0-1.916,0.858-1.916,1.916v13.392
			c-3.062,0.843-5.319,3.644-5.319,6.969c0,3.326,2.258,6.127,5.319,6.97v16.161c0,1.059,0.857,1.916,1.916,1.916
			c1.058,0,1.915-0.857,1.915-1.916V29.247c3.062-0.843,5.319-3.644,5.319-6.97C19.404,18.952,17.147,16.151,14.085,15.308z
			 M14.085,25.088c-0.546,0.375-1.205,0.594-1.915,0.594c-0.711,0-1.37-0.219-1.916-0.594c-0.897-0.613-1.489-1.644-1.489-2.811
			s0.592-2.197,1.489-2.811c0.546-0.374,1.205-0.594,1.916-0.594c0.71,0,1.369,0.22,1.915,0.594
			c0.897,0.614,1.489,1.644,1.489,2.811C15.574,23.445,14.982,24.475,14.085,25.088z"/>
		<path fill="#c4af73" d="M30.898,9.494c0-3.326-2.259-6.127-5.32-6.97V1.916C25.578,0.858,24.721,0,23.663,0c-1.059,0-1.916,0.858-1.916,1.916
			v0.608c-3.061,0.843-5.319,3.644-5.319,6.97s2.259,6.126,5.319,6.969v28.944c0,1.058,0.857,1.916,1.916,1.916
			c1.058,0,1.915-0.858,1.915-1.916V16.464C28.639,15.621,30.898,12.82,30.898,9.494z M25.578,12.305
			c-0.547,0.374-1.206,0.594-1.916,0.594s-1.369-0.22-1.916-0.594c-0.897-0.613-1.488-1.644-1.488-2.811s0.591-2.197,1.488-2.811
			c0.547-0.374,1.206-0.593,1.916-0.593s1.369,0.219,1.916,0.593c0.897,0.614,1.488,1.644,1.488,2.811S26.476,11.692,25.578,12.305z
			"/>
		<path fill="#c4af73" d="M37.069,27.213V1.916C37.069,0.858,36.212,0,35.154,0c-1.058,0-1.915,0.858-1.915,1.916v25.295
			c-3.062,0.844-5.319,3.645-5.319,6.971s2.258,6.125,5.319,6.969v4.258c0,1.059,0.857,1.916,1.915,1.916
			c1.059,0,1.915-0.857,1.915-1.916V41.15c3.062-0.842,5.32-3.643,5.32-6.969S40.13,28.055,37.069,27.213z M37.069,36.992
			c-0.546,0.374-1.205,0.594-1.915,0.594s-1.369-0.22-1.915-0.594c-0.897-0.613-1.489-1.645-1.489-2.811
			c0-1.168,0.592-2.197,1.489-2.812c0.546-0.374,1.205-0.593,1.915-0.593s1.369,0.219,1.915,0.593
			c0.897,0.614,1.489,1.644,1.489,2.812C38.559,35.348,37.968,36.379,37.069,36.992z"/>
	</g>
</g>
<g>
</g>
<g>
</g>
<g>
</g>
<g>
</g>
<g>
</g>
<g>
</g>
<g>
</g>
<g>
</g>
<g>
</g>
<g>
</g>
<g>
</g>
<g>
</g>
<g>
</g>
<g>
</g>
<g>
</g>
</svg>
